<svg xmlns="http://www.w3.org/2000/svg" width="18" height="23" viewBox="0 0 18 23"><defs><clipPath id="2n1ua"><path d="M3.735 4.707c-.714 0-1.294.579-1.294 1.293v15.531c0 .713.58 1.293 1.294 1.293h10.353c.715 0 1.295-.58 1.295-1.293V6c0-.714-.58-1.293-1.295-1.293z"/></clipPath><clipPath id="2n1ub"><path d="M7.617.824A2.588 2.588 0 0 0 5.03 3.413V6h7.764V3.413A2.588 2.588 0 0 0 10.206.824z"/></clipPath></defs><g><g/><g clip-path="url(#2n1ua)"><path fill="none" stroke="#f4583f" stroke-miterlimit="50" stroke-width="2" d="M3.735 4.707v0h10.353c.714 0 1.294.58 1.294 1.294v15.53c0 .714-.58 1.294-1.294 1.294H3.735c-.715 0-1.294-.58-1.294-1.294V6c0-.714.58-1.294 1.294-1.294z"/></g><g><path fill="none" stroke="#f4583f" stroke-linecap="round" stroke-miterlimit="50" d="M7.042 8.589v10.353"/></g><g><path fill="none" stroke="#f4583f" stroke-linecap="round" stroke-miterlimit="50" d="M10.854 8.589v10.353"/></g><g><path fill="none" stroke="#f4583f" stroke-linecap="round" stroke-miterlimit="50" d="M.5 5.354h16.823"/></g><g/><g clip-path="url(#2n1ub)"><path fill="none" stroke="#f4583f" stroke-linecap="round" stroke-linejoin="round" stroke-miterlimit="50" stroke-width="2" d="M7.617.824v0h2.59a2.588 2.588 0 0 1 2.587 2.588V6H5.03v0-2.588A2.588 2.588 0 0 1 7.617.824z"/></g></g></svg>